<svg width="16" height="17" viewBox="0 0 16 17" fill="none" xmlns="http://www.w3.org/2000/svg">
<path d="M11.4724 17.0002H4.53565C1.82257 17.0002 -0.000823975 15.1 -0.000823975 12.2725V5.73503C-0.000823975 2.90193 1.82257 0.998535 4.53565 0.998535H11.4724C14.1807 0.998535 16.0008 2.90193 16.0008 5.73503V12.2725C16.0008 15.1 14.1807 17.0002 11.4724 17.0002ZM7.99201 7.78404C7.8064 7.78531 7.62888 7.86015 7.49839 7.99215C7.36789 8.12414 7.29509 8.30251 7.29594 8.48812V12.0245C7.29594 12.2103 7.36974 12.3884 7.5011 12.5198C7.63246 12.6512 7.81063 12.725 7.99641 12.725C8.18219 12.725 8.36036 12.6512 8.49172 12.5198C8.62308 12.3884 8.69688 12.2103 8.69688 12.0245V8.48812C8.69667 8.30131 8.62231 8.12223 8.49015 7.99021C8.35798 7.8582 8.17881 7.78404 7.99201 7.78404ZM8.00801 5.24778C7.86955 5.24699 7.73397 5.28728 7.61841 5.36354C7.50285 5.43981 7.41249 5.54863 7.35878 5.67625C7.30506 5.80386 7.2904 5.94454 7.31663 6.08049C7.34287 6.21645 7.40883 6.34157 7.50618 6.44003C7.60352 6.53849 7.72788 6.60588 7.86352 6.63367C7.99916 6.66146 8.14 6.6484 8.26822 6.59615C8.39645 6.54389 8.50629 6.45479 8.58387 6.34011C8.66146 6.22542 8.70329 6.09031 8.70408 5.95185C8.70504 5.8598 8.68774 5.76847 8.65319 5.68314C8.61865 5.59781 8.56754 5.52018 8.50282 5.45471C8.4381 5.38925 8.36105 5.33725 8.27612 5.30174C8.19119 5.26622 8.10007 5.24788 8.00801 5.24778Z" fill="#ED1C24"/>
</svg>
