<svg width="18" height="18" viewBox="0 0 18 18" fill="none" xmlns="http://www.w3.org/2000/svg">
<path d="M9.00002 0.666748C7.35185 0.666748 5.74068 1.15549 4.37027 2.07117C2.99986 2.98685 1.93176 4.28834 1.30103 5.81105C0.670298 7.33377 0.50527 9.00933 0.826813 10.6258C1.14836 12.2423 1.94203 13.7272 3.10747 14.8926C4.27291 16.0581 5.75776 16.8517 7.37427 17.1733C8.99078 17.4948 10.6663 17.3298 12.1891 16.6991C13.7118 16.0683 15.0133 15.0002 15.9289 13.6298C16.8446 12.2594 17.3334 10.6483 17.3334 9.00008C17.3298 6.79103 16.4507 4.67346 14.8887 3.11142C13.3266 1.54938 11.2091 0.670274 9.00002 0.666748ZM12.3334 9.62508H9.62502V12.3334C9.62502 12.4992 9.55918 12.6581 9.44197 12.7754C9.32476 12.8926 9.16578 12.9584 9.00002 12.9584C8.83426 12.9584 8.67529 12.8926 8.55808 12.7754C8.44087 12.6581 8.37502 12.4992 8.37502 12.3334V9.62508H5.66669C5.50093 9.62508 5.34196 9.55923 5.22475 9.44202C5.10754 9.32481 5.04169 9.16584 5.04169 9.00008C5.04169 8.83432 5.10754 8.67535 5.22475 8.55814C5.34196 8.44093 5.50093 8.37508 5.66669 8.37508H8.37502V5.66675C8.37502 5.50099 8.44087 5.34202 8.55808 5.22481C8.67529 5.1076 8.83426 5.04175 9.00002 5.04175C9.16578 5.04175 9.32476 5.1076 9.44197 5.22481C9.55918 5.34202 9.62502 5.50099 9.62502 5.66675V8.37508H12.3334C12.4991 8.37508 12.6581 8.44093 12.7753 8.55814C12.8925 8.67535 12.9584 8.83432 12.9584 9.00008C12.9584 9.16584 12.8925 9.32481 12.7753 9.44202C12.6581 9.55923 12.4991 9.62508 12.3334 9.62508Z" fill="#ED1C24"/>
</svg>
