<svg width="18" height="20" viewBox="0 0 18 20" fill="none" xmlns="http://www.w3.org/2000/svg">
<path d="M4.84926 19.0054C4.20383 19.0357 3.55879 18.9377 2.95152 18.7169C2.34425 18.4962 1.78681 18.1572 1.31148 17.7195C0.867059 17.2439 0.522511 16.684 0.298209 16.0729C0.0739082 15.4618 -0.0255925 14.8119 0.00559058 14.1618V6.1697C-0.0250175 5.52855 0.0746712 4.88786 0.298633 4.28633C0.522595 3.6848 0.866182 3.13492 1.30863 2.66991C2.14306 1.90176 3.22564 1.45888 4.3592 1.42195V0.675454C4.35688 0.507829 4.4187 0.345653 4.53202 0.222111C4.64534 0.0985695 4.80158 0.0230005 4.96878 0.0108668C5.13598 -0.00126682 5.3015 0.0509522 5.43147 0.156839C5.56144 0.262726 5.64603 0.414276 5.66794 0.58048L5.67363 0.675454V1.4077H11.4405V0.675454C11.4358 0.506292 11.4965 0.341838 11.61 0.216337C11.7235 0.0908361 11.8811 0.0139621 12.0499 0.00172246C12.2187 -0.0105172 12.3857 0.0428211 12.5161 0.15063C12.6466 0.25844 12.7304 0.41241 12.7501 0.58048L12.7558 0.675454V1.4248C13.9066 1.45972 15.0045 1.91559 15.8415 2.706C16.2717 3.17028 16.6047 3.71587 16.821 4.31069C17.0372 4.90551 17.1324 5.53756 17.1009 6.1697V14.232C17.1318 14.874 17.0324 15.5157 16.8088 16.1183C16.5852 16.7209 16.242 17.272 15.7998 17.7385C14.8331 18.6129 13.5592 19.0685 12.2572 19.0054H4.84926ZM1.32003 14.1618C1.26551 14.6378 1.31943 15.1199 1.47775 15.5721C1.63607 16.0243 1.89467 16.4348 2.23419 16.7729C2.5737 17.111 2.98533 17.3678 3.43821 17.5242C3.8911 17.6805 4.3735 17.7324 4.84926 17.6758H12.2572C14.53 17.6758 15.7827 16.4516 15.7827 14.2273V7.87733H1.32003V14.1618ZM15.7855 6.55244V6.17254C15.8167 5.71365 15.7552 5.25317 15.6048 4.81851C15.4543 4.38385 15.218 3.9839 14.9098 3.64244C14.3225 3.09626 13.5575 2.78087 12.7558 2.75443V3.58545C12.759 3.75404 12.6972 3.91739 12.5833 4.04173C12.4695 4.16606 12.3121 4.24186 12.1439 4.25345C11.9757 4.26503 11.8095 4.21153 11.6796 4.10399C11.5497 3.99645 11.4661 3.84311 11.4461 3.67568L11.4405 3.58545V2.73069H5.67363V3.58545C5.67464 3.75262 5.61191 3.91388 5.49821 4.03642C5.38452 4.15897 5.2284 4.23358 5.06163 4.24508C4.89486 4.25657 4.72998 4.20409 4.60054 4.09831C4.4711 3.99253 4.38684 3.8414 4.36489 3.67568L4.3592 3.58545V2.75063C3.92762 2.75255 3.50129 2.84536 3.10798 3.02303C2.71466 3.20071 2.36319 3.45925 2.07647 3.78181C1.78974 4.10438 1.57419 4.48374 1.44386 4.89517C1.31352 5.3066 1.27133 5.74087 1.32003 6.1697V6.54959L15.7855 6.55244ZM11.79 14.0991C11.7904 13.9395 11.8482 13.7854 11.9528 13.6649C12.0574 13.5444 12.2019 13.4656 12.3598 13.4428L12.4548 13.4371C12.6188 13.4434 12.7748 13.5101 12.8925 13.6245C13.0103 13.7388 13.0816 13.8927 13.0927 14.0565C13.1038 14.2203 13.0539 14.3824 12.9526 14.5116C12.8513 14.6408 12.7058 14.728 12.544 14.7563L12.4548 14.762C12.2788 14.762 12.11 14.6922 11.9853 14.5679C11.8607 14.4437 11.7905 14.2751 11.79 14.0991ZM7.89602 14.0991C7.89644 13.9395 7.95423 13.7854 8.05885 13.6649C8.16347 13.5444 8.30794 13.4656 8.46587 13.4428L8.56084 13.4371C8.72495 13.4432 8.881 13.5098 8.99893 13.6241C9.11685 13.7384 9.1883 13.8923 9.19951 14.0561C9.21071 14.2199 9.16088 14.3821 9.05962 14.5114C8.95835 14.6407 8.81282 14.7279 8.65107 14.7563L8.56084 14.762C8.38551 14.761 8.21767 14.6908 8.09387 14.5666C7.97006 14.4424 7.90032 14.2744 7.89982 14.0991H7.89602ZM4.00209 14.0991C4.00251 13.9395 4.0603 13.7854 4.16492 13.6649C4.26954 13.5444 4.41401 13.4656 4.57194 13.4428L4.66691 13.4371C4.83005 13.4448 4.98466 13.5122 5.10125 13.6266C5.21784 13.741 5.28825 13.8943 5.29905 14.0572C5.30986 14.2202 5.26029 14.3814 5.15982 14.5102C5.05934 14.6389 4.91499 14.7262 4.75429 14.7553L4.65931 14.761C4.48464 14.7593 4.31767 14.6889 4.19451 14.565C4.07134 14.4411 4.00188 14.2737 4.00114 14.0991H4.00209ZM11.79 10.6658C11.7904 10.5062 11.8482 10.3521 11.9528 10.2316C12.0574 10.1111 12.2019 10.0323 12.3598 10.0095L12.4548 10.0038C12.6179 10.0115 12.7725 10.0789 12.8891 10.1933C13.0057 10.3077 13.0761 10.4609 13.0869 10.6239C13.0977 10.7869 13.0482 10.9481 12.9477 11.0769C12.8472 11.2056 12.7029 11.2929 12.5421 11.322L12.4529 11.3277C12.2774 11.3272 12.1092 11.2574 11.985 11.1333C11.8608 11.0093 11.7907 10.8413 11.79 10.6658ZM7.89602 10.6658C7.89644 10.5062 7.95423 10.3521 8.05885 10.2316C8.16347 10.1111 8.30794 10.0323 8.46587 10.0095L8.56084 10.0038C8.72495 10.0099 8.881 10.0765 8.99893 10.1908C9.11685 10.3051 9.1883 10.459 9.19951 10.6228C9.21071 10.7866 9.16088 10.9488 9.05962 11.0781C8.95835 11.2074 8.81282 11.2946 8.65107 11.323L8.56084 11.3287C8.38551 11.3277 8.21767 11.2575 8.09387 11.1333C7.97006 11.0091 7.90032 10.8411 7.89982 10.6658H7.89602ZM4.00209 10.6658C4.00251 10.5062 4.0603 10.3521 4.16492 10.2316C4.26954 10.1111 4.41401 10.0323 4.57194 10.0095L4.66691 10.0038C4.83005 10.0115 4.98466 10.0789 5.10125 10.1933C5.21784 10.3077 5.28825 10.4609 5.29905 10.6239C5.30986 10.7869 5.26029 10.9481 5.15982 11.0769C5.05934 11.2056 4.91499 11.2929 4.75429 11.322L4.65931 11.3277C4.48464 11.326 4.31767 11.2556 4.19451 11.1317C4.07134 11.0078 4.00188 10.8404 4.00114 10.6658H4.00209Z" fill="#7E879F"/>
</svg>
