<svg width="31" height="31" viewBox="0 0 31 31" fill="none" xmlns="http://www.w3.org/2000/svg">
<circle cx="15.5" cy="15.5" r="15" fill="#ED1C24" stroke="white"/>
<path d="M19.965 22.625H11.035C10.1204 22.6246 9.24327 22.2613 8.59616 21.615C7.94905 20.9686 7.5848 20.0919 7.58333 19.1773V14.4796C7.5848 13.5649 7.94905 12.6882 8.59616 12.0419C9.24327 11.3955 10.1204 11.0323 11.035 11.0318C11.0668 11.0331 11.0983 11.0246 11.1253 11.0077C11.1522 10.9907 11.1735 10.9661 11.1862 10.9368L11.2329 10.8418L11.2986 10.7033C11.5052 10.2679 11.7396 9.77468 11.8821 9.48968C12.0369 9.1563 12.284 8.8742 12.594 8.67668C12.904 8.47917 13.2641 8.37449 13.6317 8.37501H17.3604C17.7292 8.37366 18.0907 8.4779 18.4021 8.67542C18.7135 8.87295 18.9619 9.1555 19.1179 9.48968C19.2422 9.73905 19.4346 10.1388 19.6143 10.5252L19.7267 10.7627L19.8059 10.9368C19.8211 10.9656 19.8439 10.9897 19.8718 11.0065C19.8997 11.0232 19.9316 11.032 19.9642 11.0318C20.879 11.0321 21.7563 11.3952 22.4036 12.0416C23.0508 12.688 23.4152 13.5648 23.4167 14.4796V19.1773C23.4152 20.0919 23.0509 20.9686 22.4038 21.615C21.7567 22.2613 20.8796 22.6246 19.965 22.625ZM15.5 13.4417C15.0893 13.4413 14.6826 13.5224 14.3034 13.6803C13.9243 13.8382 13.5803 14.0698 13.2912 14.3616C13.0028 14.6485 12.7745 14.9899 12.6195 15.366C12.4645 15.7421 12.3861 16.1454 12.3887 16.5521C12.3886 16.9606 12.4691 17.365 12.6254 17.7423C12.7818 18.1196 13.011 18.4623 13.3 18.751C13.589 19.0396 13.932 19.2684 14.3095 19.4243C14.687 19.5801 15.0916 19.6601 15.5 19.6594C15.9074 19.6601 16.3109 19.5802 16.6873 19.4242C17.0637 19.2682 17.4054 19.0393 17.6929 18.7506C17.9833 18.4631 18.214 18.1209 18.3716 17.7439C18.5293 17.3669 18.6108 16.9624 18.6115 16.5538C18.6123 16.1451 18.5322 15.7404 18.3759 15.3628C18.2196 14.9852 17.9902 14.6423 17.7008 14.3537C17.4127 14.0635 17.0697 13.8334 16.6919 13.6769C16.3141 13.5203 15.909 13.4404 15.5 13.4417ZM19.9412 13.2525C19.801 13.2542 19.6644 13.2973 19.5485 13.3763C19.4327 13.4553 19.3427 13.5667 19.2899 13.6967C19.2371 13.8266 19.2238 13.9692 19.2517 14.1066C19.2796 14.2441 19.3475 14.3702 19.4467 14.4693C19.546 14.5683 19.6723 14.6359 19.8098 14.6635C19.9473 14.6911 20.0899 14.6775 20.2197 14.6244C20.3495 14.5713 20.4608 14.4811 20.5395 14.3651C20.6183 14.249 20.661 14.1123 20.6625 13.9721C20.6626 13.8775 20.644 13.7838 20.6077 13.6965C20.5715 13.6091 20.5183 13.5297 20.4513 13.463C20.3842 13.3963 20.3047 13.3434 20.2171 13.3076C20.1296 13.2717 20.0358 13.2535 19.9412 13.2541V13.2525ZM15.5 18.4735C15.2474 18.4742 14.9971 18.4251 14.7635 18.3288C14.5299 18.2325 14.3177 18.0911 14.1389 17.9125C13.9602 17.734 13.8184 17.5219 13.7219 17.2885C13.6253 17.055 13.5758 16.8048 13.5762 16.5521V16.5442C13.5728 16.2941 13.6202 16.0458 13.7154 15.8145C13.8107 15.5832 13.9519 15.3736 14.1304 15.1984C14.353 14.9729 14.6279 14.8058 14.9306 14.7121C15.2333 14.6184 15.5544 14.6009 15.8655 14.6611C16.1766 14.7214 16.468 14.8576 16.7138 15.0576C16.9596 15.2576 17.1521 15.5152 17.2744 15.8076C17.3966 16.0999 17.4448 16.4179 17.4145 16.7334C17.3843 17.0488 17.2766 17.3519 17.101 17.6157C16.9255 17.8795 16.6874 18.0958 16.4081 18.2454C16.1288 18.3951 15.8169 18.4734 15.5 18.4735Z" fill="white"/>
</svg>
