<svg width="18" height="19" viewBox="0 0 18 19" fill="none" xmlns="http://www.w3.org/2000/svg">
<path d="M4.89659 18.9941H4.88614C4.23646 19.0226 3.58763 18.9212 2.97756 18.696C2.3675 18.4708 1.80845 18.1263 1.33308 17.6825C0.887619 17.2084 0.541437 16.65 0.314886 16.0401C0.0883355 15.4303 -0.0140122 14.7813 0.0138595 14.1314L0.00341211 6.22268C-0.0422159 5.00849 0.371142 3.82165 1.16117 2.89851C1.98102 2.03833 3.09677 1.52136 4.28304 1.45202V0.739694C4.28144 0.642685 4.29908 0.54632 4.33495 0.456169C4.37081 0.366019 4.42419 0.283871 4.49199 0.214475C4.59469 0.11461 4.72459 0.0472876 4.8654 0.0209479C5.00621 -0.00539184 5.15166 0.0104238 5.28351 0.0664119C5.41537 0.1224 5.52776 0.216068 5.6066 0.335673C5.68544 0.455278 5.72721 0.595495 5.72669 0.738744V1.40358L11.297 1.39598V0.730197C11.2952 0.633458 11.3125 0.537306 11.348 0.447312C11.3836 0.357319 11.4366 0.275273 11.5041 0.205927C11.6067 0.106177 11.7364 0.0388921 11.877 0.0124912C12.0177 -0.0139097 12.163 0.00174549 12.2947 0.0574982C12.4265 0.113251 12.5389 0.206625 12.6179 0.325939C12.6969 0.445254 12.7389 0.585209 12.7388 0.728297V1.44062C13.931 1.49537 15.0581 2.00004 15.893 2.85292C16.7013 3.76201 17.1294 4.947 17.0887 6.16284L17.0991 14.1655C17.0991 17.1336 15.2367 18.9808 12.2288 18.9846L4.89659 18.9941ZM12.3912 13.4779C12.1823 13.4839 11.9843 13.5722 11.8404 13.7236C11.6964 13.8751 11.6182 14.0773 11.6228 14.2862C11.6268 14.4416 11.6766 14.5924 11.766 14.7196C11.8555 14.8468 11.9805 14.9447 12.1255 15.001C12.2704 15.0573 12.4288 15.0694 12.5806 15.036C12.7325 15.0025 12.871 14.9248 12.9789 14.8128C13.0867 14.7008 13.159 14.5593 13.1866 14.4063C13.2143 14.2533 13.196 14.0955 13.1342 13.9528C13.0724 13.8102 12.9698 13.6889 12.8393 13.6044C12.7088 13.5199 12.5562 13.4759 12.4007 13.4779H12.3912ZM4.6734 13.4779C4.46471 13.4885 4.26821 13.5794 4.12513 13.7317C3.98205 13.884 3.90351 14.0858 3.90599 14.2947C3.9116 14.4963 3.99488 14.6878 4.13841 14.8294C4.28195 14.971 4.47465 15.0517 4.67625 15.0545H4.71329C4.81494 15.0502 4.91472 15.0257 5.00684 14.9825C5.09896 14.9393 5.18158 14.8782 5.2499 14.8028C5.32021 14.7263 5.37449 14.6364 5.40956 14.5385C5.44463 14.4407 5.45977 14.3368 5.4541 14.233C5.45085 14.0293 5.36728 13.8352 5.2216 13.6929C5.07591 13.5506 4.8799 13.4716 4.67625 13.4732L4.6734 13.4779ZM8.53703 13.4732C8.32851 13.4846 8.13242 13.576 7.9895 13.7283C7.84659 13.8806 7.76784 14.0821 7.76963 14.2909C7.77526 14.4929 7.85893 14.6849 8.00308 14.8266C8.14722 14.9683 8.34064 15.0486 8.54273 15.0507H8.57692C8.7833 15.0399 8.97699 14.9478 9.11564 14.7946C9.25429 14.6413 9.32661 14.4394 9.31679 14.233C9.31354 14.0293 9.22997 13.8352 9.08428 13.6929C8.9386 13.5506 8.74259 13.4716 8.53893 13.4732H8.53703ZM4.66865 10.0607C4.45996 10.0712 4.26346 10.1622 4.12038 10.3145C3.9773 10.4667 3.89876 10.6685 3.90124 10.8775C3.90639 11.0793 3.98965 11.2713 4.13349 11.413C4.27733 11.5547 4.47054 11.6351 4.67245 11.6373H4.70949C4.81085 11.6329 4.91032 11.6083 5.00211 11.5651C5.09391 11.5219 5.1762 11.4609 5.24421 11.3856C5.31425 11.3089 5.3683 11.219 5.4032 11.1211C5.4381 11.0233 5.45314 10.9195 5.44745 10.8157C5.44445 10.6122 5.36109 10.4181 5.21556 10.2757C5.07002 10.1334 4.87411 10.0544 4.67055 10.0559L4.66865 10.0607ZM8.53324 10.0274C8.32438 10.0377 8.12764 10.1286 7.98436 10.2809C7.84108 10.4332 7.76241 10.6351 7.76488 10.8442C7.77052 11.0464 7.85432 11.2385 7.99867 11.3802C8.14302 11.5219 8.33667 11.6021 8.53893 11.604H8.57312C8.77915 11.5925 8.97231 11.5001 9.11066 11.347C9.249 11.1939 9.32137 10.9924 9.31204 10.7863C9.30879 10.5828 9.22536 10.3889 9.07987 10.2466C8.93439 10.1043 8.73862 10.0252 8.53513 10.0265L8.53324 10.0274ZM12.3988 10.0331C12.1915 10.0376 11.9945 10.1239 11.8507 10.2733C11.7069 10.4226 11.6281 10.6227 11.6314 10.83V10.8414C11.6346 11.0453 11.7184 11.2397 11.8645 11.3821C12.0106 11.5245 12.2071 11.6032 12.4111 11.6012H12.4292C12.6326 11.5915 12.8243 11.503 12.9636 11.3545C13.103 11.2059 13.179 11.0089 13.1755 10.8052C13.172 10.6015 13.0894 10.4072 12.9451 10.2635C12.8008 10.1197 12.6062 10.0378 12.4026 10.035L12.3988 10.0331ZM4.28494 2.90325C2.39966 3.09321 1.4442 4.20918 1.44705 6.22078V6.51615L15.6441 6.49716V6.16474C15.6061 4.15789 14.6298 3.05712 12.7435 2.89281V3.62412C12.744 3.76736 12.7021 3.90754 12.623 4.027C12.544 4.14646 12.4314 4.23984 12.2993 4.2954C12.1673 4.35095 12.0218 4.36619 11.8811 4.33918C11.7404 4.31218 11.6109 4.24414 11.5088 4.14365C11.3748 4.00489 11.3008 3.81894 11.3027 3.62602V2.85767L5.73238 2.86526V3.63267C5.73242 3.77571 5.69023 3.91559 5.61111 4.03475C5.53199 4.15392 5.41945 4.24708 5.2876 4.30255C5.15576 4.35803 5.01047 4.37336 4.86995 4.34661C4.72943 4.31986 4.59994 4.25223 4.49769 4.15219C4.36342 4.0132 4.28936 3.82687 4.29159 3.63362V2.9023L4.28494 2.90325Z" fill="#ED1C24"/>
</svg>
