<svg width="20" height="20" viewBox="0 0 20 20" fill="none" xmlns="http://www.w3.org/2000/svg">
<path d="M14.1667 2.5H5.83332C3.33332 2.5 1.66666 3.75 1.66666 6.66667V12.5C1.66666 15.4167 3.33332 16.6667 5.83332 16.6667H8.80832C8.9255 16.6671 9.04143 16.6427 9.14846 16.595C9.25548 16.5473 9.35115 16.4774 9.42915 16.39C9.50714 16.3025 9.56567 16.1995 9.60087 16.0877C9.63607 15.976 9.64713 15.858 9.63332 15.7417C9.54919 15.1289 9.56891 14.5063 9.69166 13.9C9.85344 13.1111 10.1893 12.3682 10.6747 11.7256C11.1602 11.0829 11.7829 10.5568 12.4976 10.1855C13.2122 9.81419 14.0008 9.60711 14.8056 9.57934C15.6105 9.55157 16.4114 9.70383 17.15 10.025C17.2765 10.0835 17.4156 10.1094 17.5547 10.1003C17.6938 10.0911 17.8284 10.0472 17.9461 9.97261C18.0639 9.89799 18.161 9.79503 18.2286 9.67315C18.2963 9.55128 18.3323 9.41438 18.3333 9.275V6.66667C18.3333 3.75 16.6667 2.5 14.1667 2.5ZM14.5583 7.15833L11.95 9.24167C11.3896 9.66866 10.7045 9.89991 9.99999 9.89991C9.29545 9.89991 8.61039 9.66866 8.04999 9.24167L5.44166 7.15833C5.3138 7.05274 5.23192 6.90164 5.21326 6.73686C5.19461 6.57209 5.24064 6.40651 5.34166 6.275C5.44452 6.14584 5.59443 6.06277 5.75847 6.04402C5.92252 6.02527 6.0873 6.07238 6.21666 6.175L8.82499 8.25833C9.16509 8.50612 9.57503 8.63961 9.99582 8.63961C10.4166 8.63961 10.8266 8.50612 11.1667 8.25833L13.775 6.175C13.8386 6.12312 13.9119 6.08449 13.9907 6.0614C14.0694 6.0383 14.152 6.0312 14.2336 6.04052C14.3151 6.04984 14.394 6.07539 14.4655 6.11566C14.537 6.15593 14.5997 6.21011 14.65 6.275C14.754 6.40467 14.8028 6.57013 14.7856 6.73549C14.7684 6.90086 14.6868 7.05279 14.5583 7.15833Z" fill="#ED1C24"/>
<path d="M15 10.8335C14.1759 10.8335 13.3703 11.0779 12.6851 11.5357C11.9999 11.9935 11.4659 12.6443 11.1505 13.4056C10.8351 14.167 10.7526 15.0048 10.9134 15.813C11.0742 16.6213 11.471 17.3637 12.0537 17.9464C12.6365 18.5292 13.3789 18.926 14.1871 19.0868C14.9954 19.2475 15.8332 19.165 16.5945 18.8497C17.3559 18.5343 18.0066 18.0002 18.4645 17.315C18.9223 16.6298 19.1667 15.8243 19.1667 15.0002C19.1667 13.8951 18.7277 12.8353 17.9463 12.0539C17.1649 11.2725 16.1051 10.8335 15 10.8335V10.8335ZM16.7083 14.6252L16.4 14.9252L14.5833 16.7502C14.4805 16.8377 14.3573 16.8979 14.225 16.9252L13.4083 17.0418C13.3453 17.0554 13.2799 17.0529 13.2181 17.0347C13.1563 17.0165 13.1 16.983 13.0544 16.9374C13.0088 16.8919 12.9754 16.8356 12.9571 16.7738C12.9389 16.7119 12.9365 16.6465 12.95 16.5835L13.0667 15.7668C13.0904 15.6334 13.151 15.5092 13.2417 15.4085L15.0583 13.6002L15.3583 13.2918C15.5254 13.0984 15.7619 12.9786 16.0167 12.9585C16.2769 12.976 16.5196 13.0959 16.6917 13.2918C16.8002 13.3652 16.8894 13.4638 16.9516 13.5791C17.0138 13.6944 17.0471 13.8231 17.0487 13.9541C17.0504 14.0852 17.0203 14.2146 16.961 14.3315C16.9017 14.4483 16.815 14.5491 16.7083 14.6252Z" fill="#ED1C24"/>
</svg>
