<svg width="22" height="22" viewBox="0 0 22 22" fill="none" xmlns="http://www.w3.org/2000/svg">
<path d="M11 0C4.94429 0 0 4.94404 0 11C0 17.056 4.94404 22 11 22C17.056 22 22 17.056 22 11C22 4.94404 17.056 0 11 0ZM15.3297 13.6915C15.7978 14.1596 15.7978 14.891 15.3297 15.3589C15.1251 15.5637 14.8032 15.6808 14.5107 15.6808C14.2182 15.6808 13.9255 15.5637 13.6915 15.3297L11 12.6676L8.30853 15.3591C8.07471 15.5637 7.78201 15.6807 7.48954 15.6807C7.19706 15.6807 6.90438 15.5637 6.6703 15.3296C6.20217 14.8615 6.20217 14.1301 6.6703 13.6622L9.36177 10.9708L6.6703 8.27929C6.20217 7.81117 6.20217 7.07978 6.6703 6.6119C7.13842 6.14378 7.86982 6.14378 8.33769 6.6119L11.0292 9.30337L13.7206 6.6119C14.1888 6.14378 14.9201 6.14378 15.388 6.6119C15.8561 7.08003 15.8561 7.81142 15.388 8.27929L12.6676 11L15.3297 13.6915Z" fill="#FF0000"/>
</svg>
