<svg width="12" height="6" viewBox="0 0 12 6" fill="none" xmlns="http://www.w3.org/2000/svg">
<path d="M0.827229 0.163998C0.919216 0.069291 1.04268 0.0115157 1.17433 0.00156817C1.30598 -0.00837937 1.43672 0.0301885 1.5419 0.109998L1.60323 0.163998L5.9999 4.64866L10.3966 0.163998C10.4886 0.069291 10.612 0.0115157 10.7437 0.00156817C10.8753 -0.00837937 11.0061 0.0301885 11.1112 0.109998L11.1726 0.163998C11.2657 0.259777 11.3222 0.385345 11.3319 0.518618C11.3417 0.651892 11.3041 0.784338 11.2259 0.892664L11.1726 0.955331L6.3879 5.836C6.29591 5.9307 6.17245 5.98848 6.0408 5.99843C5.90914 6.00838 5.7784 5.96981 5.67323 5.89L5.6119 5.836L0.827229 0.955331C0.724313 0.849333 0.666748 0.707405 0.666748 0.559664C0.666748 0.411924 0.724313 0.269996 0.827229 0.163998Z" fill="#7E879F"/>
</svg>
