<svg width="15" height="15" viewBox="0 0 15 15" fill="none" xmlns="http://www.w3.org/2000/svg">
<path d="M9.30499 14.6249C9.09009 14.6249 8.884 14.5395 8.73204 14.3876C8.58009 14.2356 8.49472 14.0295 8.49472 13.8146C8.49472 13.5997 8.58009 13.3936 8.73204 13.2417C8.884 13.0897 9.09009 13.0044 9.30499 13.0044H13.8254C14.0403 13.0044 14.2464 13.0897 14.3984 13.2417C14.5503 13.3936 14.6357 13.5997 14.6357 13.8146C14.6357 14.0295 14.5503 14.2356 14.3984 14.3876C14.2464 14.5395 14.0403 14.6249 13.8254 14.6249H9.30499ZM1.04632 14.2892L0.412991 11.5572C0.355755 11.3111 0.354495 11.0553 0.409302 10.8087C0.46411 10.5621 0.573587 10.3309 0.729657 10.1322L5.66649 3.75374C5.7066 3.70539 5.76358 3.67408 5.82589 3.66615C5.88821 3.65821 5.95121 3.67424 6.00216 3.71099L8.07791 5.36241C8.14885 5.42028 8.2309 5.463 8.319 5.48791C8.4071 5.51283 8.49937 5.51942 8.59012 5.50728C8.78466 5.48194 8.96146 5.3812 9.08245 5.22676C9.20342 5.07231 9.2589 4.87652 9.23691 4.68157C9.21139 4.48875 9.11926 4.31092 8.97645 4.17886L6.96087 2.56228C6.89952 2.51337 6.85983 2.44232 6.85035 2.36444C6.84088 2.28655 6.86237 2.20806 6.9102 2.14586L7.69078 1.13253C7.86785 0.912496 8.08857 0.731512 8.33903 0.600978C8.58949 0.470444 8.86426 0.393187 9.14605 0.374074C9.42784 0.354961 9.71053 0.394406 9.97632 0.489924C10.2421 0.585442 10.4852 0.734964 10.6904 0.929072L11.8581 1.8569C12.3141 2.19829 12.6353 2.68934 12.7654 3.24391C12.8277 3.52502 12.8253 3.81663 12.7583 4.09668C12.6914 4.37674 12.5617 4.63792 12.379 4.86049L5.42345 13.8554C5.27027 14.0535 5.07443 14.2145 4.85048 14.3264C4.62653 14.4384 4.38022 14.4985 4.12987 14.5022L1.35903 14.5354C1.28661 14.5364 1.21607 14.5124 1.15916 14.4676C1.10226 14.4228 1.06243 14.3599 1.04632 14.2892Z" fill="#ED1C24"/>
</svg>
