<svg width="16" height="16" viewBox="0 0 16 16" fill="none" xmlns="http://www.w3.org/2000/svg">
<path d="M9.90002 15.5C9.67382 15.5 9.45687 15.4101 9.29692 15.2501C9.13697 15.0902 9.04711 14.8732 9.04711 14.647C9.04711 14.4208 9.13697 14.2039 9.29692 14.0439C9.45687 13.884 9.67382 13.7941 9.90002 13.7941H14.6584C14.8846 13.7941 15.1015 13.884 15.2615 14.0439C15.4214 14.2039 15.5113 14.4208 15.5113 14.647C15.5113 14.8732 15.4214 15.0902 15.2615 15.2501C15.1015 15.4101 14.8846 15.5 14.6584 15.5H9.90002ZM1.20669 15.1466L0.540026 12.2708C0.479778 12.0118 0.478451 11.7425 0.536143 11.4829C0.593835 11.2233 0.709074 10.9799 0.873359 10.7708L6.07002 4.05662C6.11225 4.00573 6.17222 3.97277 6.23781 3.96442C6.30341 3.95606 6.36973 3.97293 6.42336 4.01162L8.60836 5.74995C8.68303 5.81087 8.76941 5.85584 8.86214 5.88207C8.95487 5.9083 9.052 5.91523 9.14752 5.90245C9.35231 5.87578 9.53842 5.76974 9.66577 5.60716C9.79311 5.44459 9.8515 5.2385 9.82836 5.03328C9.8015 4.83031 9.70452 4.64312 9.55419 4.50412L7.43253 2.80245C7.36795 2.75097 7.32617 2.67618 7.3162 2.59419C7.30622 2.51221 7.32884 2.42959 7.37919 2.36412L8.20086 1.29745C8.38725 1.06584 8.61958 0.875328 8.88322 0.737923C9.14686 0.600519 9.4361 0.519196 9.73272 0.499077C10.0293 0.478958 10.3269 0.520479 10.6067 0.621024C10.8865 0.721569 11.1424 0.87896 11.3584 1.08328L12.5875 2.05995C13.0675 2.4193 13.4056 2.9362 13.5425 3.51995C13.6081 3.81587 13.6056 4.12282 13.5351 4.41761C13.4647 4.71241 13.3282 4.98733 13.1359 5.22162L5.81419 14.69C5.65295 14.8984 5.44681 15.0679 5.21107 15.1858C4.97533 15.3037 4.71606 15.3669 4.45253 15.3708L1.53586 15.4058C1.45963 15.4067 1.38537 15.3815 1.32547 15.3344C1.26557 15.2872 1.22365 15.2209 1.20669 15.1466Z" fill="#7E879F"/>
</svg>
