<svg width="24" height="19" viewBox="0 0 24 19" fill="none" xmlns="http://www.w3.org/2000/svg">
<path d="M3.71434 11.5714V13.8571C3.72348 15.464 4.48234 15.2143 5.04462 14.732L8.28577 11.8057V13.2857C8.28577 14.6743 8.60577 15 10.0001 15H15.1429C15.1429 15 18.1195 18.5 18.1429 18.4765C18.5715 19 19.7321 18.8217 19.7143 17.8571V15H21.4286C22.8286 15 23.1429 14.652 23.1429 13.2857V4.71425C23.1429 3.34282 22.8058 2.99997 21.4286 2.99997H15.7143V1.85711C15.7143 0.445679 15.4515 0.142822 14.0001 0.142822H2.00005C0.651481 0.142822 0.285767 0.434251 0.285767 1.85711V9.28568C0.285767 10.6794 0.600052 11.5714 2.00005 11.5714H3.71434ZM18.0001 13.2857V15.9834L15.7143 13.2857H10.5715C10.1429 13.2857 10.0001 13.1314 10.0001 12.7143V5.28568C10.0001 4.90282 10.1772 4.71425 10.5715 4.71425H20.8572C21.2509 4.71425 21.4286 4.92568 21.4286 5.25139V12.7143C21.4286 13.1263 21.2235 13.2857 20.8572 13.2857H18.0001Z" fill="#ED1C24"/>
</svg>
