<svg width="109" height="95" viewBox="0 0 109 95" fill="none" xmlns="http://www.w3.org/2000/svg">
<g clip-path="url(#clip0_46_1158)">
<path d="M51.5496 26.357H49.3692C48.4082 26.357 47.6228 25.5742 47.6228 24.6163V22.4431C47.6228 21.4852 48.4082 20.7024 49.3692 20.7024H51.5496C52.5106 20.7024 53.296 21.4852 53.296 22.4431V24.6163C53.296 25.5742 52.5106 26.357 51.5496 26.357Z" fill="white"/>
<path d="M59.6307 26.357H57.4503C56.4892 26.357 55.7039 25.5742 55.7039 24.6163V22.4431C55.7039 21.4852 56.4892 20.7024 57.4503 20.7024H59.6307C60.5917 20.7024 61.3771 21.4852 61.3771 22.4431V24.6163C61.3771 25.5742 60.5917 26.357 59.6307 26.357Z" fill="white"/>
<path d="M51.5496 33.6236H49.3692C48.4082 33.6236 47.6228 32.8408 47.6228 31.8829V29.7097C47.6228 28.7518 48.4082 27.969 49.3692 27.969H51.5496C52.5106 27.969 53.296 28.7518 53.296 29.7097V31.8778C53.296 32.8356 52.5106 33.6236 51.5496 33.6236Z" fill="white"/>
<path d="M59.6307 33.6236H57.4503C56.4892 33.6236 55.7039 32.8408 55.7039 31.8829V29.7097C55.7039 28.7518 56.4892 27.969 57.4503 27.969H59.6307C60.5917 27.969 61.3771 28.7518 61.3771 29.7097V31.8778C61.3771 32.8356 60.5917 33.6236 59.6307 33.6236Z" fill="white"/>
<path d="M62.896 58.6006C62.0641 58.6006 61.377 57.9517 61.377 57.1431C61.377 56.3501 62.0641 55.7012 62.896 55.7012C63.7072 55.7012 64.3789 56.3501 64.3789 57.1431C64.3789 57.9517 63.7072 58.6006 62.896 58.6006ZM61.5371 59.6666H64.2497V69.5595H61.5371V59.6666Z" fill="white"/>
<path d="M65.6602 59.6821H68.6621L70.9768 64.5282L73.2916 59.6821H76.309L70.9768 69.9922L65.6602 59.6821Z" fill="white"/>
<path d="M76.8723 64.6362C76.8723 60.5627 80.4168 59.4812 82.2768 59.4812C84.8241 59.4812 87.3765 61.2116 87.4644 64.3993C87.4644 65.1564 87.4127 65.6405 87.4127 65.6405H79.5642C79.8898 67.2627 81.7343 67.4429 82.2768 67.4429C83.7752 67.4429 84.5193 66.6344 84.8241 66.2894L86.9219 67.4944C86.524 68.0352 85.1858 69.8016 82.2768 69.8016C80.3444 69.8119 76.8723 68.7098 76.8723 64.6362ZM79.6366 63.735H84.6071C84.4986 62.8338 83.6151 61.845 82.2562 61.845C80.7061 61.845 79.7451 62.7256 79.6366 63.735Z" fill="white"/>
<path d="M49.9273 55.9225C49.9273 56.6693 49.8704 57.3954 49.7568 58.1112C49.5811 59.2442 49.2659 60.336 48.8267 61.3608C48.7596 61.5153 48.6976 61.6646 48.6252 61.814C47.6694 63.8739 46.2226 65.661 44.4401 67.0257C44.3729 67.0772 44.3057 67.1287 44.2386 67.175C41.9032 68.9054 39.0097 69.9251 35.8734 69.9251C28.1076 69.9251 21.8196 63.6525 21.8196 55.9174C21.8196 48.1822 28.1128 41.9097 35.8734 41.9097C37.1703 41.9097 38.4259 42.0848 39.6142 42.4144L35.7236 46.2871C30.4534 46.3643 26.2011 50.6439 26.2011 55.9174C26.2011 61.2372 30.5309 65.5528 35.8683 65.5528C40.4513 65.5528 44.2902 62.3753 45.2823 58.1061H39.9346L35.6048 53.7905V53.7338H49.7568C49.8653 54.4496 49.9273 55.1809 49.9273 55.9225Z" fill="#ED1C24"/>
<path d="M60.7622 42.0229V46.3952H50.103V52.6729H45.7163V42.0229H60.7622Z" fill="white"/>
<path d="M50.103 60.1814V69.8992H45.7112V66.6033C45.7784 66.5467 45.8455 66.4849 45.9127 66.4231C47.7004 64.7854 49.1471 62.643 50.103 60.1814Z" fill="white"/>
<path d="M57.7654 53.909L53.5544 58.2812H50.3665C50.4801 57.5705 50.537 56.8392 50.537 56.0925C50.537 55.3509 50.4801 54.6196 50.3665 53.9038H57.7654V53.909Z" fill="white"/>
<path d="M109 54.321H100.552H100.557L90.513 44.3148L78.2004 32.0375L54.5 8.41492L8.44781 54.321H0L10.8297 43.5269L12.2506 42.1106L18.7557 35.6269L20.0061 34.3807L22.0883 32.3053L28.6244 25.7906L39.7745 14.6772L54.5 0L60.292 5.77303L70.6516 16.0986L79.2337 24.6525V11.7572H89.5365V34.9162L90.2443 35.6269L109 54.321Z" fill="#ED1C24"/>
<path d="M84.794 5.16392C86.5419 -6.35828 86.5406 -15.9126 84.7912 -16.1762C83.0418 -16.4398 80.2067 -7.31297 78.4589 4.20923C76.7111 15.7314 76.7124 25.2857 78.4618 25.5494C80.2112 25.813 83.0462 16.6861 84.794 5.16392Z" fill="white"/>
<path d="M87.1442 10.7375C88.3256 10.7375 89.2833 9.78294 89.2833 8.60544C89.2833 7.42794 88.3256 6.47339 87.1442 6.47339C85.9628 6.47339 85.0051 7.42794 85.0051 8.60544C85.0051 9.78294 85.9628 10.7375 87.1442 10.7375Z" fill="white"/>
<path d="M96.7547 55.0626V84.5097C96.7547 90.3033 92.0425 95 86.2298 95H22.7756C16.9629 95 12.2507 90.3033 12.2507 84.5097V55.0626L18.4871 48.8467V83.5003C18.4871 86.4048 20.8484 88.7532 23.7573 88.7532H85.2429C88.157 88.7532 90.5131 86.3997 90.5131 83.5003V48.8467L96.7547 55.0626Z" fill="#ED1C24"/>
<path d="M82.0289 86.3068H25.9995C25.5293 86.3068 25.147 85.9257 25.147 85.4571V78.515C25.147 78.0464 25.5293 77.6653 25.9995 77.6653H82.0289C82.4991 77.6653 82.8814 78.0464 82.8814 78.515V85.4571C82.8814 85.9257 82.4991 86.3068 82.0289 86.3068Z" fill="white"/>
<path d="M30.1536 84.4322V82.5216H27.8233V84.4322H26.9294V79.7097H27.8233V81.6976H30.1536V79.7097H31.0423V84.4322H30.1536Z" fill="black"/>
<path d="M36.5398 82.0941C36.5243 83.3146 35.7751 84.5351 34.1114 84.5351C32.4476 84.5351 31.6726 83.3403 31.6726 82.0992C31.6726 80.8581 32.4735 79.6118 34.1114 79.6118C35.7389 79.6118 36.5501 80.8581 36.5398 82.0941ZM32.551 82.1147C32.5716 82.8923 32.9902 83.7214 34.1062 83.7214C35.2222 83.7214 35.6408 82.8871 35.6563 82.1095C35.6718 81.3113 35.2222 80.4203 34.1062 80.4203C32.9902 80.4203 32.5303 81.3164 32.551 82.1147Z" fill="black"/>
<path d="M41.3243 81.0075L39.7794 83.0571H39.6038L38.095 80.9972V84.4322H37.2012V79.7097H38.2294L39.7123 81.7388L41.1952 79.7097H42.2182V84.4322H41.3243V81.0075Z" fill="black"/>
<path d="M46.5894 84.427H43.0398C43.0398 82.8563 43.0398 81.2753 43.0398 79.7046H46.5894V80.5698H43.9285V81.6564H46.4964V82.4855H43.9285V83.5516H46.5894V84.427Z" fill="black"/>
<path d="M51.5701 80.8427C51.4099 80.5749 50.9604 80.3174 50.4489 80.3174C49.7875 80.3174 49.4672 80.5955 49.4672 80.9457C49.4672 81.3577 49.9529 81.471 50.5212 81.538C51.5081 81.6616 52.4278 81.9139 52.4278 83.0417C52.4278 84.0923 51.4926 84.5455 50.4386 84.5455C49.4724 84.5455 48.7283 84.2468 48.3718 83.3868L49.1159 83.0005C49.3277 83.5207 49.8754 83.7473 50.4489 83.7473C51.0121 83.7473 51.5391 83.5516 51.5391 83.0366C51.5391 82.5937 51.0741 82.4083 50.4437 82.3414C49.4775 82.2281 48.5837 81.9706 48.5837 80.9097C48.5837 79.9364 49.5447 79.5398 50.4179 79.5347C51.1568 79.5347 51.9215 79.7458 52.278 80.4719L51.5701 80.8427Z" fill="black"/>
<path d="M56.6544 84.427H53.1047C53.1047 82.8563 53.1047 81.2753 53.1047 79.7046H56.6544V80.5698H53.9934V81.6564H56.5614V82.4855H53.9934V83.5516H56.6544V84.427Z" fill="black"/>
<path d="M61.5473 84.4271H60.4829L59.1034 82.846H58.2457V84.4271H57.3518V79.6995C58.101 79.6995 58.8554 79.7046 59.6046 79.7046C60.7206 79.7098 61.3096 80.4513 61.3096 81.2702C61.3096 81.9191 61.0099 82.5731 60.1109 82.7533L61.5473 84.3653V84.4271ZM58.2457 80.5337V82.0427H59.6046C60.1729 82.0427 60.4158 81.6667 60.4158 81.2856C60.4158 80.9097 60.1677 80.5286 59.6046 80.5286H58.2457V80.5337Z" fill="black"/>
<path d="M64.4874 84.4476H63.5626L61.594 79.7046H62.5964L64.0224 83.3816L65.4588 79.7046H66.4612L64.4874 84.4476Z" fill="black"/>
<path d="M67.0139 84.427V79.7046H67.9026V84.427H67.0139Z" fill="black"/>
<path d="M72.9144 83.8347C72.4287 84.3137 71.7984 84.5351 71.1163 84.5351C69.3544 84.5351 68.6104 83.3249 68.6052 82.0992C68.6001 80.8632 69.4061 79.6118 71.1163 79.6118C71.757 79.6118 72.3667 79.8539 72.8576 80.3328L72.2634 80.9044C71.9534 80.6006 71.5349 80.4615 71.1215 80.4615C69.9796 80.4615 69.4836 81.3113 69.4888 82.0992C69.4939 82.882 69.9486 83.6957 71.1215 83.6957C71.5349 83.6957 71.9999 83.5257 72.315 83.2167L72.9144 83.8347Z" fill="black"/>
<path d="M76.9498 84.427H73.4001C73.4001 82.8563 73.4001 81.2753 73.4001 79.7046H76.9498V80.5698H74.2888V81.6564H76.8568V82.4855H74.2888V83.5516H76.9498V84.427Z" fill="black"/>
<path d="M80.7061 80.8427C80.5459 80.5749 80.0964 80.3174 79.5849 80.3174C78.9235 80.3174 78.6032 80.5955 78.6032 80.9457C78.6032 81.3577 79.0889 81.471 79.6572 81.538C80.6441 81.6616 81.5638 81.9139 81.5638 83.0417C81.5638 84.0923 80.6286 84.5455 79.5746 84.5455C78.6084 84.5455 77.8643 84.2468 77.5078 83.3868L78.2518 83.0005C78.4637 83.5207 79.0114 83.7473 79.5849 83.7473C80.1481 83.7473 80.6751 83.5516 80.6751 83.0366C80.6751 82.5937 80.2101 82.4083 79.5797 82.3414C78.6135 82.2281 77.7197 81.9706 77.7197 80.9097C77.7197 79.9364 78.6807 79.5398 79.5539 79.5347C80.2927 79.5347 81.0574 79.7458 81.414 80.4719L80.7061 80.8427Z" fill="black"/>
</g>
<defs>
<clipPath id="clip0_46_1158">
<rect width="109" height="95" fill="white"/>
</clipPath>
</defs>
</svg>
