<svg width="18" height="18" viewBox="0 0 18 18" fill="none" xmlns="http://www.w3.org/2000/svg">
<path d="M12.4917 0.666748H5.50835C2.47502 0.666748 0.666687 2.47508 0.666687 5.50841V12.4834C0.666687 15.5251 2.47502 17.3334 5.50835 17.3334H12.4834C15.5167 17.3334 17.325 15.5251 17.325 12.4917V5.50841C17.3334 2.47508 15.525 0.666748 12.4917 0.666748ZM12.9834 7.08341L8.25835 11.8084C8.20044 11.8666 8.13161 11.9127 8.05582 11.9442C7.98002 11.9757 7.89876 11.9919 7.81669 11.9919C7.73461 11.9919 7.65335 11.9757 7.57756 11.9442C7.50176 11.9127 7.43294 11.8666 7.37502 11.8084L5.01669 9.45008C4.95528 9.39286 4.90603 9.32386 4.87187 9.2472C4.83771 9.17053 4.81934 9.08777 4.81786 9.00385C4.81638 8.91993 4.83182 8.83657 4.86325 8.75875C4.89469 8.68093 4.94147 8.61023 5.00082 8.55088C5.06017 8.49153 5.13087 8.44475 5.20869 8.41331C5.28651 8.38188 5.36987 8.36644 5.45379 8.36792C5.53771 8.3694 5.62047 8.38777 5.69714 8.42193C5.7738 8.45609 5.8428 8.50534 5.90002 8.56675L7.81669 10.4834L12.1 6.20008C12.2185 6.08968 12.3752 6.02958 12.5371 6.03244C12.699 6.03529 12.8535 6.10089 12.968 6.2154C13.0825 6.32991 13.1481 6.4844 13.151 6.64631C13.1539 6.80823 13.0938 6.96494 12.9834 7.08341Z" fill="#7E879F"/>
</svg>
