<svg width="24" height="24" viewBox="0 0 24 24" fill="none" xmlns="http://www.w3.org/2000/svg">
<path d="M17.6167 21H7.38326C6.21979 20.9981 5.10464 20.534 4.28277 19.7095C3.4609 18.8851 2.99953 17.7678 3 16.603V10.05C3.03263 9.38815 3.19995 8.73992 3.49172 8.14509C3.78348 7.55026 4.19354 7.02136 4.69674 6.59083L9.46 2.87242C10.2133 2.32715 11.114 2.02341 12.0433 2.0013C12.9727 1.97919 13.8868 2.23974 14.6651 2.74856L20.1265 6.57933C20.6799 7.00661 21.134 7.54907 21.4574 8.16923C21.7809 8.78938 21.966 9.47244 22 10.1712V16.6119C21.9986 17.7752 21.5363 18.8906 20.7146 19.7132C19.8929 20.5358 18.7788 20.9986 17.6167 21ZM10.273 3.91637L5.50977 7.63212C4.81707 8.25409 4.39253 9.12091 4.32558 10.05V16.6057C4.32558 17.4183 4.64744 18.1978 5.22062 18.7733C5.79379 19.3488 6.5715 19.6733 7.38326 19.6756H17.6167C18.0185 19.6755 18.4162 19.5961 18.7873 19.4421C19.1584 19.2881 19.4956 19.0623 19.7795 18.7778C20.0635 18.4933 20.2886 18.1556 20.4422 17.784C20.5957 17.4123 20.6747 17.014 20.6744 16.6119V10.1712C20.6416 9.68596 20.5083 9.21282 20.2832 8.78182C20.058 8.35082 19.7459 7.97137 19.3665 7.66751L13.9051 3.83674C13.3588 3.49144 12.723 3.31484 12.0771 3.329C11.4312 3.34316 10.8037 3.54745 10.273 3.91637Z" fill="#7E879F"/>
<path d="M12 18.75C11.8015 18.7487 11.6115 18.6693 11.4711 18.5289C11.3307 18.3885 11.2513 18.1985 11.25 18V15C11.2513 14.8015 11.3307 14.6115 11.4711 14.4711C11.6115 14.3307 11.8015 14.2513 12 14.25C12.1985 14.2513 12.3885 14.3307 12.5289 14.4711C12.6693 14.6115 12.7487 14.8015 12.75 15V18C12.7487 18.1985 12.6693 18.3885 12.5289 18.5289C12.3885 18.6693 12.1985 18.7487 12 18.75Z" fill="#7E879F"/>
</svg>
