<svg width="14" height="14" viewBox="0 0 14 14" fill="none" xmlns="http://www.w3.org/2000/svg">
<path d="M0 7.97084C0.766423 7.85013 1.4635 7.55017 2.12774 7.16242C3.07299 6.61005 3.91606 5.92235 4.72628 5.1944C6.06934 3.97993 8.18613 4.22136 9.15328 5.7175C9.77007 6.67224 9.83577 7.69649 9.24452 8.66587C8.39051 10.0632 7.38321 11.3472 6.15328 12.441C5.85766 12.7043 5.5365 12.9384 5.15693 13.0774C4.98905 13.1396 4.83212 13.1543 4.65693 13.0774C4.34671 12.9421 4.02555 12.8287 3.70073 12.7043C3.90876 12.0349 4.11679 11.3838 4.48175 10.8058C3.86496 11.2045 3.24818 11.6069 2.62774 12.0093C2.62044 11.9983 2.61314 11.991 2.60219 11.98C3.04015 11.2814 3.4781 10.5827 3.91606 9.88399C3.90876 9.87667 3.90146 9.86936 3.89416 9.8657C3.77007 9.97178 3.64599 10.0779 3.51825 10.1803C2.97445 10.6193 2.39051 10.996 1.75547 11.2923C1.66058 11.3362 1.60219 11.3289 1.53285 11.2557C1.30657 11.0143 1.07299 10.7802 0.843066 10.5388C1.18248 10.151 1.5 9.78888 1.80292 9.44137C1.51095 9.51819 1.20803 9.60232 0.905109 9.67914C0.777372 9.71206 0.642336 9.71572 0.514599 9.74498C0.408759 9.77059 0.357664 9.72669 0.313869 9.63524C0.145985 9.28407 0.080292 8.9073 0.0291971 8.52686C0.0218978 8.47931 0.0109489 8.42809 0 8.38054C0 8.24153 0 8.10619 0 7.97084Z" fill="#F7B22C"/>
<path d="M8.36133 3.91043C8.76279 3.42757 9.15695 2.95569 9.54746 2.4838C10.0657 1.86194 10.584 1.23642 11.1022 0.614551C11.854 -0.281666 13.2007 -0.179241 13.7847 0.819401C14.1533 1.45224 14.0548 2.35943 13.4161 2.88984C12.9781 3.25199 12.5402 3.61779 12.1059 3.98359C11.4818 4.50669 10.854 5.02979 10.2299 5.55289C10.1971 5.58215 10.1606 5.60776 10.1132 5.648C9.72264 4.87249 9.1533 4.28355 8.36133 3.91043Z" fill="#F7B22C"/>
</svg>
