<svg width="14" height="16" viewBox="0 0 14 16" fill="none" xmlns="http://www.w3.org/2000/svg">
<path d="M7 15.5C6.80241 15.493 6.61113 15.4286 6.4495 15.3147C4.84782 14.2847 3.44111 12.9794 2.2945 11.459C1.23357 10.1121 0.646726 8.45286 0.625 6.73848C0.624731 5.91462 0.790643 5.09917 1.11281 4.34092C1.43498 3.58266 1.90678 2.89718 2.5 2.32548C3.70048 1.15048 5.31494 0.494783 6.99475 0.499984C8.66751 0.483172 10.2787 1.13053 11.4748 2.30005C12.6708 3.46957 13.3542 5.06576 13.375 6.73848C13.3521 8.45315 12.7642 10.1124 11.7025 11.459C10.551 12.9752 9.14482 14.2798 7.54675 15.3147C7.38697 15.4295 7.19661 15.494 7 15.5ZM6.99475 4.83273C6.4378 4.83273 5.90365 5.05398 5.50983 5.44781C5.116 5.84164 4.89475 6.37578 4.89475 6.93273C4.89374 7.20584 4.94774 7.47634 5.05353 7.72813C5.15932 7.97991 5.31474 8.20781 5.5105 8.39823C5.80571 8.68525 6.17821 8.87996 6.58239 8.95853C6.98656 9.0371 7.40488 8.99612 7.78612 8.8406C8.16736 8.68508 8.49498 8.42177 8.72887 8.08291C8.96277 7.74405 9.09278 7.34435 9.103 6.93273C9.09827 6.37556 8.87417 5.84269 8.47926 5.4496C8.08435 5.05652 7.55044 4.83488 6.99325 4.83273H6.99475Z" fill="#7E879F"/>
</svg>
