<svg width="43" height="43" viewBox="0 0 43 43" fill="none" xmlns="http://www.w3.org/2000/svg">
<circle cx="21.5" cy="21.5" r="21.5" fill="black"/>
<path d="M22 31.0001C21.7365 30.9907 21.4815 30.9049 21.266 30.7531C19.1304 29.3797 17.2548 27.6392 15.726 25.6121C14.3114 23.8163 13.529 21.6039 13.5 19.3181C13.4996 18.2196 13.7209 17.1323 14.1504 16.1213C14.58 15.1103 15.209 14.1963 16 13.4341C17.6006 11.8674 19.7533 10.9931 21.993 11.0001C24.2234 10.9776 26.3715 11.8408 27.9663 13.4001C29.5611 14.9595 30.4723 17.0878 30.5 19.3181C30.4694 21.6043 29.6856 23.8166 28.27 25.6121C26.7346 27.6336 24.8598 29.3732 22.729 30.7531C22.516 30.906 22.2622 30.992 22 31.0001ZM21.993 16.7771C21.2504 16.7771 20.5382 17.0721 20.0131 17.5972C19.488 18.1223 19.193 18.8345 19.193 19.5771C19.1917 19.9412 19.2637 20.3019 19.4047 20.6376C19.5458 20.9733 19.753 21.2772 20.014 21.5311C20.4076 21.9138 20.9043 22.1734 21.4432 22.2781C21.9821 22.3829 22.5398 22.3282 23.0482 22.1209C23.5565 21.9135 23.9933 21.5624 24.3052 21.1106C24.617 20.6588 24.7904 20.1259 24.804 19.5771C24.7977 18.8342 24.4989 18.1237 23.9723 17.5995C23.4458 17.0754 22.7339 16.7799 21.991 16.7771H21.993Z" fill="white"/>
</svg>
