<svg width="20" height="20" viewBox="0 0 20 20" fill="none" xmlns="http://www.w3.org/2000/svg">
<path d="M14 1.6668H9.83335C9.25255 1.62059 8.66863 1.70098 8.12191 1.90241C7.5752 2.10384 7.07871 2.42151 6.66672 2.8335C6.25473 3.24549 5.93705 3.74198 5.73562 4.2887C5.5342 4.83541 5.45381 5.41933 5.50002 6.00014V9.37514H9.20002L7.47502 7.65014C7.41687 7.59222 7.37072 7.52339 7.33924 7.4476C7.30775 7.37181 7.29154 7.29054 7.29154 7.20847C7.29154 7.1264 7.30775 7.04513 7.33924 6.96934C7.37072 6.89355 7.41687 6.82472 7.47502 6.7668C7.59263 6.65057 7.75133 6.58538 7.91669 6.58538C8.08204 6.58538 8.24074 6.65057 8.35835 6.7668L11.15 9.55847C11.2663 9.67609 11.3314 9.83478 11.3314 10.0001C11.3314 10.1655 11.2663 10.3242 11.15 10.4418L8.35835 13.2335C8.23987 13.3439 8.08317 13.404 7.92125 13.4011C7.75933 13.3983 7.60485 13.3327 7.49033 13.2182C7.37582 13.1036 7.31023 12.9492 7.30737 12.7872C7.30452 12.6253 7.36462 12.4686 7.47502 12.3501L9.20002 10.6251H5.50002V14.0001C5.45381 14.5809 5.5342 15.1649 5.73562 15.7116C5.93705 16.2583 6.25473 16.7548 6.66672 17.1668C7.07871 17.5788 7.5752 17.8964 8.12191 18.0979C8.66863 18.2993 9.25255 18.3797 9.83335 18.3335H13.9917C14.5725 18.3797 15.1564 18.2993 15.7031 18.0979C16.2498 17.8964 16.7463 17.5788 17.1583 17.1668C17.5703 16.7548 17.888 16.2583 18.0894 15.7116C18.2908 15.1649 18.3712 14.5809 18.325 14.0001V6.00014C18.373 5.41966 18.294 4.8357 18.0938 4.28877C17.8935 3.74183 17.5766 3.24501 17.1652 2.83275C16.7537 2.4205 16.2575 2.10269 15.7109 1.90135C15.1644 1.70002 14.5806 1.61999 14 1.6668Z" fill="#ED1C24"/>
<path d="M2.29166 9.375C2.12623 9.37609 1.9679 9.44229 1.85092 9.55926C1.73395 9.67624 1.66775 9.83458 1.66666 10C1.66775 10.1654 1.73395 10.3238 1.85092 10.4407C1.9679 10.5577 2.12623 10.6239 2.29166 10.625H7.49999V9.375H2.29166Z" fill="#ED1C24"/>
</svg>
