<svg width="20" height="20" viewBox="0 0 20 20" fill="none" xmlns="http://www.w3.org/2000/svg">
<path d="M7.62499 6.2417C7.46017 6.2417 7.29906 6.29057 7.16202 6.38214C7.02497 6.47371 6.91816 6.60386 6.85509 6.75613C6.79202 6.9084 6.77551 7.07596 6.80767 7.23761C6.83982 7.39926 6.91919 7.54774 7.03573 7.66429C7.15228 7.78083 7.30076 7.8602 7.46242 7.89235C7.62407 7.92451 7.79162 7.90801 7.94389 7.84493C8.09616 7.78186 8.22631 7.67505 8.31788 7.53801C8.40945 7.40097 8.45832 7.23985 8.45832 7.07503C8.45832 6.85402 8.37053 6.64206 8.21425 6.48578C8.05797 6.3295 7.846 6.2417 7.62499 6.2417V6.2417Z" fill="#ED1C24"/>
<path d="M17.8833 4.20008C17.1833 2.57508 15.6417 1.66675 13.4917 1.66675H6.50832C5.87245 1.66653 5.24276 1.79161 4.65524 2.03485C4.06772 2.27809 3.53389 2.63472 3.08426 3.08435C2.63463 3.53399 2.278 4.06781 2.03476 4.65533C1.79152 5.24285 1.66644 5.87254 1.66666 6.50842V13.4917C1.66666 15.6417 2.57499 17.1834 4.19999 17.8834C4.27693 17.9149 4.36146 17.923 4.44299 17.9067C4.52452 17.8904 4.59942 17.8504 4.65832 17.7917L17.7917 4.65841C17.8531 4.60128 17.895 4.52628 17.9114 4.44403C17.9279 4.36178 17.918 4.27644 17.8833 4.20008ZM8.77499 10.2001C8.45981 10.5039 8.03775 10.6715 7.59999 10.6667C7.16304 10.6673 6.74252 10.5002 6.42499 10.2001C5.89136 9.78066 5.47837 9.22734 5.22806 8.59645C4.97775 7.96555 4.89906 7.2796 4.99999 6.60842C5.13843 6.02818 5.47254 5.51335 5.9461 5.15059C6.41965 4.78784 7.00372 4.59931 7.59999 4.61675C8.19743 4.59957 8.78248 4.78923 9.25622 5.15365C9.72997 5.51806 10.0633 6.03489 10.2 6.61675C10.2963 7.28647 10.2154 7.96973 9.96536 8.59845C9.71534 9.22717 9.30491 9.77939 8.77499 10.2001V10.2001Z" fill="#ED1C24"/>
<path d="M16.225 17.1084C16.2688 17.1487 16.3026 17.1988 16.3235 17.2545C16.3444 17.3103 16.3519 17.3702 16.3454 17.4294C16.3389 17.4886 16.3186 17.5455 16.2861 17.5954C16.2536 17.6453 16.2099 17.6868 16.1583 17.7167C15.3369 18.1472 14.4187 18.3595 13.4917 18.3334H6.50835C6.45626 18.3332 6.40545 18.3172 6.36255 18.2877C6.31964 18.2581 6.28664 18.2163 6.26784 18.1678C6.24904 18.1192 6.24531 18.0661 6.25714 18.0153C6.26898 17.9646 6.29582 17.9186 6.33418 17.8834L11.3667 12.8501C11.4054 12.811 11.4515 12.78 11.5023 12.7589C11.553 12.7377 11.6075 12.7268 11.6625 12.7268C11.7175 12.7268 11.772 12.7377 11.8228 12.7589C11.8735 12.78 11.9196 12.811 11.9583 12.8501L16.225 17.1084Z" fill="#ED1C24"/>
<path d="M18.3334 6.50829V13.4916C18.3606 14.4188 18.1482 15.3372 17.7167 16.1583C17.6861 16.209 17.6442 16.2519 17.5943 16.2838C17.5444 16.3157 17.4879 16.3356 17.429 16.3421C17.3702 16.3485 17.3106 16.3413 17.255 16.321C17.1994 16.3007 17.1492 16.2678 17.1084 16.225L12.8417 11.9583C12.8026 11.9196 12.7716 11.8735 12.7505 11.8227C12.7293 11.7719 12.7184 11.7175 12.7184 11.6625C12.7184 11.6074 12.7293 11.553 12.7505 11.5022C12.7716 11.4514 12.8026 11.4054 12.8417 11.3666L17.875 6.33412C17.9108 6.29535 17.9573 6.26816 18.0087 6.25606C18.06 6.24397 18.1138 6.24752 18.1631 6.26625C18.2124 6.28499 18.2549 6.31805 18.2853 6.36119C18.3156 6.40432 18.3324 6.45556 18.3334 6.50829V6.50829Z" fill="#ED1C24"/>
</svg>
