<svg width="20" height="18" viewBox="0 0 20 18" fill="none" xmlns="http://www.w3.org/2000/svg">
<path d="M14.939 18H5.06C3.71982 17.9997 2.43445 17.4679 1.48586 16.5212C0.537272 15.5745 0.00291284 14.2902 0 12.95L0 5.05C0.00291284 3.70982 0.537272 2.42551 1.48586 1.47879C2.43445 0.532079 3.71982 0.000261641 5.06 0L14.939 0C16.2809 0.00256781 17.5675 0.534819 18.519 1.481C18.9897 1.9483 19.363 2.50439 19.6173 3.11704C19.8715 3.72969 20.0016 4.3867 20 5.05V12.95C19.9971 14.2904 19.4626 15.5748 18.5138 16.5216C17.565 17.4683 16.2794 18 14.939 18ZM4.034 5.246C3.93444 5.24511 3.83575 5.26452 3.74394 5.30303C3.65213 5.34154 3.56913 5.39835 3.5 5.47C3.36959 5.60012 3.29059 5.77297 3.27754 5.95673C3.2645 6.14048 3.31828 6.32276 3.429 6.47L3.56 6.6L8.11 10.15C8.66431 10.5908 9.35178 10.8305 10.06 10.83C10.7703 10.8284 11.4596 10.589 12.018 10.15L16.53 6.54L16.61 6.46C16.7266 6.31883 16.7894 6.14089 16.7872 5.9578C16.785 5.77471 16.718 5.59833 16.598 5.46C16.4596 5.31182 16.2718 5.21935 16.07 5.2H16.028C15.8359 5.19869 15.6505 5.27015 15.509 5.4L11 9C10.7189 9.23298 10.3651 9.36033 10 9.36C9.63527 9.3581 9.28225 9.23101 9 9L4.5 5.4C4.36535 5.29973 4.20188 5.24571 4.034 5.246Z" fill="#7E879F"/>
</svg>
