<svg width="52" height="52" viewBox="0 0 52 52" fill="none" xmlns="http://www.w3.org/2000/svg">
<circle cx="26" cy="26" r="26" fill="black"/>
<path d="M32.1667 22.6C32.1667 21.1148 31.5696 19.6904 30.5069 18.6402C29.4442 17.59 28.0029 17 26.5 17C24.9971 17 23.5558 17.59 22.4931 18.6402C21.4304 19.6904 20.8333 21.1148 20.8333 22.6C20.8333 29.1333 18 31 18 31H35C35 31 32.1667 29.1333 32.1667 22.6Z" fill="#ED1C24" stroke="#ED1C24" stroke-width="1.5" stroke-linecap="round" stroke-linejoin="round"/>
<path d="M28 34C27.8476 34.3042 27.6288 34.5566 27.3655 34.7321C27.1023 34.9076 26.8038 35 26.5 35C26.1962 35 25.8977 34.9076 25.6345 34.7321C25.3712 34.5566 25.1524 34.3042 25 34" stroke="#ED1C24" stroke-width="1.5" stroke-linecap="round" stroke-linejoin="round"/>
</svg>
