<svg width="24" height="24" viewBox="0 0 24 24" fill="none" xmlns="http://www.w3.org/2000/svg">
<path d="M18.8554 23.375C17.8641 23.375 16.4717 23.0165 14.3866 21.8516C11.8511 20.4297 9.88993 19.117 7.36814 16.6018C4.93673 14.1719 3.75353 12.5987 2.09755 9.58537C0.226771 6.18302 0.545677 4.39959 0.902162 3.63736C1.32669 2.72635 1.95333 2.18146 2.76329 1.64064C3.22335 1.33922 3.7102 1.08084 4.21767 0.868767C4.26845 0.846931 4.31568 0.826111 4.35783 0.807322C4.60919 0.69408 4.99005 0.522947 5.47247 0.705759C5.79443 0.826619 6.08185 1.07392 6.53177 1.51826C7.45447 2.42826 8.71536 4.45494 9.18052 5.45025C9.49282 6.12107 9.6995 6.56388 9.70001 7.06052C9.70001 7.64197 9.40751 8.09037 9.05255 8.57431C8.98603 8.66521 8.92001 8.75205 8.85603 8.83634C8.46958 9.34416 8.38478 9.49092 8.44064 9.75295C8.55388 10.2795 9.39837 11.8472 10.7862 13.232C12.1741 14.6168 13.6965 15.4079 14.2251 15.5207C14.4983 15.5791 14.6481 15.4907 15.1722 15.0906C15.2474 15.0332 15.3245 14.9738 15.4053 14.9144C15.9466 14.5117 16.3742 14.2268 16.9419 14.2268H16.945C17.4391 14.2268 17.8621 14.4411 18.5629 14.7945C19.4769 15.2556 21.5645 16.5003 22.4801 17.424C22.9255 17.8729 23.1738 18.1593 23.2952 18.4807C23.478 18.9647 23.3058 19.344 23.1936 19.5979C23.1748 19.6401 23.154 19.6863 23.1322 19.7376C22.9184 20.2441 22.6585 20.7299 22.3557 21.1889C21.8159 21.9963 21.269 22.6214 20.3559 23.0465C19.8871 23.2682 19.374 23.3806 18.8554 23.375Z" fill="#22C833"/>
</svg>
