<svg width="16" height="21" viewBox="0 0 16 21" fill="none" xmlns="http://www.w3.org/2000/svg">
<path d="M0 17.575C0 14.853 3.686 14.175 8 14.175C12.339 14.175 16 14.875 16 17.599C16 20.323 12.315 21 8 21C3.662 21 0 20.3 0 17.575ZM2.706 6.291C2.7056 5.24386 3.01576 4.22012 3.59723 3.34926C4.1787 2.47841 5.00537 1.79955 5.97269 1.39855C6.94 0.997556 8.00451 0.892432 9.03158 1.09648C10.0586 1.30052 11.0021 1.80457 11.7427 2.54487C12.4833 3.28517 12.9877 4.22846 13.1921 5.25545C13.3966 6.28244 13.2918 7.34699 12.8912 8.31446C12.4906 9.28193 11.812 10.1089 10.9414 10.6907C10.0708 11.2725 9.04714 11.583 8 11.583C7.30421 11.5856 6.61477 11.4506 5.97141 11.1856C5.32805 10.9206 4.74349 10.5309 4.25139 10.039C3.7593 9.54711 3.3694 8.96269 3.10417 8.31943C2.83894 7.67617 2.70362 6.98679 2.706 6.291Z" fill="#7E879F"/>
</svg>
