<svg width="16" height="18" viewBox="0 0 16 18" fill="none" xmlns="http://www.w3.org/2000/svg">
<path d="M13.45 2.43241L8.86665 0.715741C8.30497 0.540717 7.70333 0.540717 7.14165 0.715741L2.55831 2.43241C2.1023 2.62885 1.71058 2.94935 1.42772 3.35743C1.14486 3.76551 0.982226 4.24479 0.958313 4.74074L0.958313 11.4907C0.979101 11.8684 1.07709 12.2377 1.24622 12.576C1.41534 12.9142 1.65203 13.2142 1.94165 13.4574L6.52498 16.8824C6.95792 17.1796 7.47071 17.3386 7.99581 17.3386C8.52092 17.3386 9.03371 17.1796 9.46665 16.8824L14.05 13.4574C14.3389 13.2136 14.5751 12.9135 14.7441 12.5753C14.9132 12.2372 15.0116 11.8682 15.0333 11.4907V4.74074C15.0128 4.24612 14.8534 3.76727 14.5734 3.35903C14.2934 2.95079 13.904 2.62966 13.45 2.43241ZM10.9 7.09907L7.31665 10.6824C7.25873 10.7406 7.1899 10.7867 7.11411 10.8182C7.03832 10.8497 6.95705 10.8659 6.87498 10.8659C6.79291 10.8659 6.71164 10.8497 6.63585 10.8182C6.56006 10.7867 6.49123 10.7406 6.43331 10.6824L5.09998 9.33491C4.98958 9.21643 4.92948 9.05972 4.93233 8.89781C4.93519 8.73589 5.00078 8.5814 5.11529 8.46689C5.22981 8.35238 5.38429 8.28679 5.54621 8.28393C5.70813 8.28107 5.86483 8.34117 5.98331 8.45157L6.88331 9.35157L10.025 6.20991C10.0828 6.14917 10.1523 6.10069 10.2292 6.06735C10.3062 6.03402 10.3891 6.01651 10.4729 6.01588C10.5568 6.01524 10.6399 6.03149 10.7174 6.06366C10.7948 6.09583 10.865 6.14325 10.9237 6.20311C10.9825 6.26297 11.0286 6.33403 11.0593 6.41208C11.09 6.49012 11.1046 6.57354 11.1024 6.65738C11.1002 6.74121 11.0811 6.82375 11.0464 6.90006C11.0116 6.97637 10.9618 7.0449 10.9 7.10157V7.09907Z" fill="#ED1C24"/>
</svg>
