<svg width="18" height="16" viewBox="0 0 18 16" fill="none" xmlns="http://www.w3.org/2000/svg">
<path d="M13.9325 9.93325C13.8261 10.0365 13.7464 10.1639 13.7001 10.3047C13.6538 10.4455 13.6423 10.5954 13.6667 10.7416L14.4075 14.8416C14.438 15.0118 14.4189 15.1872 14.3524 15.3468C14.2859 15.5064 14.1748 15.6434 14.0325 15.7416C13.8928 15.8435 13.7271 15.9039 13.5546 15.9157C13.3821 15.9275 13.2098 15.8902 13.0575 15.8083L9.36666 13.8833C9.23806 13.8152 9.09545 13.7778 8.94999 13.7741H8.72416C8.64533 13.7856 8.56916 13.811 8.49916 13.8491L4.80749 15.7833C4.6248 15.8752 4.41778 15.9073 4.21583 15.8749C3.97856 15.8298 3.76826 15.6939 3.62973 15.4961C3.4912 15.2982 3.43538 15.0541 3.47416 14.8158L4.21583 10.7158C4.24007 10.5684 4.22858 10.4174 4.18232 10.2754C4.13606 10.1335 4.05638 10.0047 3.94999 9.89992L0.940827 6.98325C0.81763 6.86396 0.731081 6.71195 0.691367 6.54512C0.651653 6.37829 0.660429 6.20359 0.716661 6.04159C0.771325 5.8797 0.869264 5.73588 0.999859 5.6257C1.13045 5.51553 1.28872 5.44321 1.45749 5.41659L5.59916 4.81575C5.75436 4.7998 5.90303 4.74493 6.03137 4.65621C6.15971 4.56749 6.26357 4.44781 6.33333 4.30825L8.15749 0.566585C8.2005 0.483055 8.25679 0.407065 8.32416 0.341585L8.39916 0.283252C8.43801 0.240421 8.48327 0.203875 8.53333 0.174919L8.62416 0.141585L8.76583 0.083252H9.11666C9.27082 0.0990964 9.41859 0.153109 9.54663 0.240408C9.67467 0.327707 9.77893 0.445539 9.84999 0.583252L11.6992 4.30825C11.765 4.44237 11.8622 4.55857 11.9827 4.64695C12.1031 4.73532 12.2431 4.79324 12.3908 4.81575L16.5325 5.41659C16.7041 5.4412 16.8655 5.51253 16.9993 5.62276C17.133 5.73299 17.2339 5.87788 17.2908 6.04159C17.3443 6.20527 17.35 6.38082 17.3072 6.54762C17.2644 6.71442 17.1749 6.86555 17.0492 6.98325L13.9325 9.93325Z" fill="#ED1C24"/>
</svg>
