<svg width="24" height="24" viewBox="0 0 24 24" fill="none" xmlns="http://www.w3.org/2000/svg">
<path d="M20.1304 6.5768L14.6638 2.74821C13.8845 2.23965 12.9696 1.97925 12.0396 2.00129C11.1095 2.02334 10.208 2.3268 9.45355 2.87172L4.6988 6.5863C4.19666 7.01767 3.78719 7.54657 3.49519 8.14097C3.20319 8.73537 3.03472 9.3829 3 10.0444V16.5995C2.99975 17.7647 3.46125 18.8824 4.28325 19.7074C5.10526 20.5324 6.22062 20.9972 7.38461 21H17.6154C18.7781 20.9995 19.8931 20.5369 20.7152 19.7139C21.5374 18.8909 21.9995 17.7748 22 16.6109V10.1698C21.9659 9.4713 21.7811 8.7885 21.4583 8.16829C21.1356 7.54807 20.6826 7.00514 20.1304 6.5768Z" fill="#ED1C24"/>
<path d="M12 18.75C11.8015 18.7487 11.6115 18.6693 11.4711 18.5289C11.3307 18.3885 11.2513 18.1985 11.25 18V15C11.2513 14.8015 11.3307 14.6115 11.4711 14.4711C11.6115 14.3307 11.8015 14.2513 12 14.25C12.1985 14.2513 12.3885 14.3307 12.5289 14.4711C12.6693 14.6115 12.7487 14.8015 12.75 15V18C12.7487 18.1985 12.6693 18.3885 12.5289 18.5289C12.3885 18.6693 12.1985 18.7487 12 18.75Z" fill="white"/>
</svg>
