<svg width="25" height="24" viewBox="0 0 25 24" fill="none" xmlns="http://www.w3.org/2000/svg">
<path d="M18.1667 8.6C18.1667 7.11479 17.5696 5.69041 16.5069 4.6402C15.4442 3.59 14.0029 3 12.5 3C10.9971 3 9.55577 3.59 8.49306 4.6402C7.43036 5.69041 6.83333 7.11479 6.83333 8.6C6.83333 15.1333 4 17 4 17H21C21 17 18.1667 15.1333 18.1667 8.6Z" fill="#ED1C24" stroke="#ED1C24" stroke-width="1.5" stroke-linecap="round" stroke-linejoin="round"/>
<path d="M14 20C13.8476 20.3042 13.6288 20.5566 13.3655 20.7321C13.1023 20.9076 12.8038 21 12.5 21C12.1962 21 11.8977 20.9076 11.6345 20.7321C11.3712 20.5566 11.1524 20.3042 11 20" stroke="#ED1C24" stroke-width="1.5" stroke-linecap="round" stroke-linejoin="round"/>
</svg>
