<svg width="24" height="24" viewBox="0 0 24 24" fill="none" xmlns="http://www.w3.org/2000/svg">
<mask id="path-1-inside-1_407_375" fill="white">
<path d="M20 21V19C20 17.9391 19.5786 16.9217 18.8284 16.1716C18.0783 15.4214 17.0609 15 16 15H8C6.93913 15 5.92172 15.4214 5.17157 16.1716C4.42143 16.9217 4 17.9391 4 19V21"/>
</mask>
<path d="M20 21V19C20 17.9391 19.5786 16.9217 18.8284 16.1716C18.0783 15.4214 17.0609 15 16 15H8C6.93913 15 5.92172 15.4214 5.17157 16.1716C4.42143 16.9217 4 17.9391 4 19V21" fill="#ED1C24"/>
<path d="M18.5 21V22.5H21.5V21H18.5ZM16 15V13.5V15ZM8 15V13.5V15ZM4 19H2.5H4ZM2.5 21C2.5 21.8284 3.17157 22.5 4 22.5C4.82843 22.5 5.5 21.8284 5.5 21H2.5ZM21.5 21V19H18.5V21H21.5ZM21.5 19C21.5 17.5413 20.9205 16.1424 19.8891 15.1109L17.7678 17.2322C18.2366 17.7011 18.5 18.337 18.5 19H21.5ZM19.8891 15.1109C18.8576 14.0795 17.4587 13.5 16 13.5V16.5C16.663 16.5 17.2989 16.7634 17.7678 17.2322L19.8891 15.1109ZM16 13.5H8V16.5H16V13.5ZM8 13.5C6.54131 13.5 5.14236 14.0795 4.11091 15.1109L6.23223 17.2322C6.70107 16.7634 7.33696 16.5 8 16.5V13.5ZM4.11091 15.1109C3.07946 16.1424 2.5 17.5413 2.5 19H5.5C5.5 18.337 5.76339 17.7011 6.23223 17.2322L4.11091 15.1109ZM2.5 19V21H5.5V19H2.5Z" fill="#ED1C24" mask="url(#path-1-inside-1_407_375)"/>
<path d="M12 11C14.2091 11 16 9.20914 16 7C16 4.79086 14.2091 3 12 3C9.79086 3 8 4.79086 8 7C8 9.20914 9.79086 11 12 11Z" fill="#ED1C24" stroke="#ED1C24" stroke-width="1.5" stroke-linecap="round" stroke-linejoin="round"/>
</svg>
