<svg width="6" height="12" viewBox="0 0 6 12" fill="none" xmlns="http://www.w3.org/2000/svg">
<path d="M0.163967 11.1727C0.0692605 11.0807 0.0114852 10.9572 0.00153763 10.8256C-0.00840991 10.6939 0.0301579 10.5632 0.109967 10.458L0.163967 10.3967L4.64863 6L0.163967 1.60333C0.0692601 1.51134 0.0114848 1.38788 0.00153721 1.25623C-0.00841033 1.12458 0.0301575 0.993837 0.109967 0.888664L0.163967 0.827331C0.259746 0.734146 0.385314 0.677715 0.518587 0.66796C0.651861 0.658205 0.784307 0.695752 0.892633 0.773997L0.9553 0.827331L5.83597 5.612C5.93067 5.70398 5.98845 5.82745 5.9984 5.9591C6.00834 6.09075 5.96978 6.22149 5.88997 6.32666L5.83597 6.388L0.955301 11.1727C0.849302 11.2756 0.707375 11.3331 0.559634 11.3331C0.411893 11.3331 0.269966 11.2756 0.163967 11.1727Z" fill="#7E879F"/>
</svg>
