<svg width="18" height="18" viewBox="0 0 18 18" fill="none" xmlns="http://www.w3.org/2000/svg">
<path d="M16.35 17.2158L16.2808 17.1575L13.6741 14.6158C12.247 15.7323 10.4861 16.3369 8.67413 16.3325C6.57449 16.3527 4.55249 15.5396 3.05144 14.0714C1.55039 12.6031 0.692781 10.5996 0.666626 8.5C0.692561 6.39999 1.55031 4.39599 3.05174 2.92752C4.55318 1.45904 6.57572 0.645988 8.67579 0.666668C10.776 0.645765 12.7988 1.45872 14.3004 2.92722C15.802 4.39572 16.6599 6.39985 16.6858 8.5C16.684 10.4682 15.9294 12.3612 14.5766 13.7908L17.1525 16.3025C17.2096 16.3579 17.2551 16.4242 17.2861 16.4975C17.3171 16.5708 17.3331 16.6496 17.3331 16.7292C17.3331 16.8088 17.3171 16.8875 17.2861 16.9608C17.2551 17.0341 17.2096 17.1004 17.1525 17.1558C17.0468 17.2584 16.9084 17.3205 16.7615 17.3313C16.6147 17.3421 16.4687 17.301 16.3491 17.215L16.35 17.2158ZM1.89996 8.5C1.92194 10.2766 2.64763 11.9719 3.91786 13.2142C5.18809 14.4565 6.89916 15.1442 8.67579 15.1267C10.4526 15.1445 12.1639 14.4568 13.4343 13.2145C14.7047 11.9722 15.4305 10.2767 15.4525 8.5C15.4305 6.72328 14.7047 5.02781 13.4343 3.78551C12.1639 2.54322 10.4526 1.85555 8.67579 1.87334C6.89916 1.85577 5.18809 2.54354 3.91786 3.78581C2.64763 5.02808 1.92194 6.72342 1.89996 8.5Z" fill="white"/>
</svg>
