<svg width="18" height="18" viewBox="0 0 18 18" fill="none" xmlns="http://www.w3.org/2000/svg">
<path d="M16.8625 1.15159C16.6575 0.94138 16.3989 0.791219 16.1147 0.71734C15.8305 0.643462 15.5315 0.648677 15.25 0.732422L1.84001 4.63326C1.54732 4.71333 1.28345 4.87504 1.07923 5.09948C0.875007 5.32392 0.738856 5.60183 0.686678 5.90076C0.653269 6.24066 0.713212 6.58324 0.860054 6.89161C1.00689 7.19997 1.23507 7.46244 1.52001 7.65075L5.71668 10.2308C5.92545 10.3599 6.1719 10.4144 6.41566 10.3852C6.65942 10.3559 6.88602 10.2448 7.05834 10.0699L11.8608 5.23659C11.9179 5.177 11.9865 5.12958 12.0624 5.09718C12.1383 5.06479 12.22 5.04808 12.3025 5.04808C12.385 5.04808 12.4667 5.06479 12.5426 5.09718C12.6185 5.12958 12.6871 5.177 12.7442 5.23659C12.8604 5.3554 12.9254 5.51498 12.9254 5.68117C12.9254 5.84736 12.8604 6.00694 12.7442 6.12576L7.93334 10.9591C7.75984 11.1338 7.64976 11.3615 7.62062 11.606C7.59147 11.8505 7.64494 12.0977 7.77251 12.3083L10.3333 16.5449C10.4746 16.7866 10.6771 16.9867 10.9204 17.1251C11.1638 17.2635 11.4393 17.3353 11.7192 17.3333C11.7887 17.3347 11.8583 17.3319 11.9275 17.3249C12.2424 17.2857 12.5389 17.155 12.7805 16.9492C13.022 16.7434 13.198 16.4713 13.2867 16.1666L17.2633 2.77076C17.3479 2.48979 17.3554 2.19125 17.2851 1.9064C17.2147 1.62154 17.069 1.36084 16.8633 1.15159" fill="#ED1C24"/>
</svg>
