<svg width="16" height="18" viewBox="0 0 16 18" fill="none" xmlns="http://www.w3.org/2000/svg">
<path d="M4.81165 17.3334C3.7752 17.3277 2.78328 16.9114 2.05321 16.1757C1.32313 15.44 0.914432 14.4449 0.916653 13.4084V4.42508C0.912883 3.43364 1.30249 2.48119 2.00003 1.77662C2.69756 1.07206 3.64606 0.672919 4.63749 0.666748L9.04332 0.666748C9.1444 0.667409 9.24109 0.708141 9.31217 0.780006C9.38326 0.851871 9.42293 0.949 9.42249 1.05008V3.73341C9.42267 4.46694 9.71232 5.17075 10.2285 5.69192C10.7447 6.21309 11.4457 6.5095 12.1792 6.51675C12.5317 6.51675 12.8408 6.51675 13.1142 6.52175C13.3283 6.52175 13.515 6.52175 13.6808 6.52175C13.7983 6.52175 13.95 6.52175 14.115 6.52175C14.3058 6.52175 14.52 6.51758 14.7117 6.51758C14.8105 6.51802 14.9052 6.55766 14.9749 6.62781C15.0445 6.69796 15.0835 6.79288 15.0833 6.89175V13.5917C15.0871 14.5789 14.6991 15.5273 14.0045 16.2287C13.3099 16.9302 12.3655 17.3275 11.3783 17.3334H4.81165ZM4.81999 12.0342C4.82127 12.1986 4.88673 12.356 5.00241 12.4727C5.11808 12.5895 5.27481 12.6564 5.43915 12.6592H9.92749C10.0918 12.6564 10.2486 12.5895 10.3642 12.4727C10.4799 12.356 10.5454 12.1986 10.5467 12.0342C10.5465 11.953 10.5304 11.8727 10.4993 11.7977C10.4681 11.7227 10.4225 11.6546 10.365 11.5973C10.3075 11.5399 10.2392 11.4945 10.1642 11.4635C10.0891 11.4325 10.0087 11.4166 9.92749 11.4167H5.43832C5.27462 11.4167 5.11759 11.4817 5.00168 11.5973C4.88577 11.7129 4.82043 11.8697 4.81999 12.0334V12.0342ZM4.81999 7.87591C4.82043 8.03976 4.88588 8.19674 5.00198 8.31236C5.11807 8.42798 5.2753 8.4928 5.43915 8.49258H8.22665C8.3905 8.4928 8.54774 8.42798 8.66383 8.31236C8.77992 8.19674 8.84538 8.03976 8.84582 7.87591C8.84454 7.71156 8.77908 7.5542 8.6634 7.43744C8.54772 7.32067 8.39099 7.25374 8.22665 7.25091H5.43832C5.27427 7.25395 5.11787 7.32086 5.0024 7.43743C4.88692 7.55399 4.82148 7.71101 4.81999 7.87508V7.87591ZM12.29 5.30008C11.8467 5.29613 11.423 5.11732 11.1108 4.80256C10.7987 4.48779 10.6235 4.06252 10.6233 3.61925V1.42175C10.6223 1.34269 10.645 1.26514 10.6886 1.19917C10.7322 1.13321 10.7947 1.08189 10.8678 1.05188C10.941 1.02186 11.0215 1.01454 11.0988 1.03086C11.1762 1.04719 11.2469 1.0864 11.3017 1.14341L14.6233 4.63258C14.6767 4.68863 14.7126 4.75906 14.7265 4.83522C14.7405 4.91137 14.7319 4.98994 14.7018 5.06127C14.6717 5.1326 14.6214 5.19359 14.5571 5.23676C14.4929 5.27992 14.4174 5.30338 14.34 5.30425H13.7642C13.2442 5.30591 12.7075 5.30341 12.29 5.29925V5.30008Z" fill="#ED1C24"/>
</svg>
