<svg width="20" height="20" viewBox="0 0 20 20" fill="none" xmlns="http://www.w3.org/2000/svg">
<path d="M17.5583 4.35841C16.2166 4.22508 14.875 4.12508 13.525 4.05008V4.04175L13.3416 2.95841C13.2166 2.19175 13.0333 1.04175 11.0833 1.04175H8.89997C6.95497 1.04175 6.77497 2.14175 6.64164 2.95008L6.46664 4.01675C5.69164 4.06675 4.91664 4.11675 4.14164 4.19175L2.44164 4.35841C2.27698 4.37389 2.12522 4.45413 2.01973 4.5815C1.91424 4.70887 1.86367 4.87293 1.87914 5.03758C1.89461 5.20224 1.97486 5.354 2.10223 5.45949C2.22959 5.56498 2.39365 5.61555 2.55831 5.60008L4.25831 5.43341C8.64769 5.05451 13.0639 5.11313 17.4416 5.60841H17.5083C17.6641 5.60778 17.8141 5.54955 17.9295 5.44493C18.0449 5.34031 18.1175 5.1967 18.1333 5.04175C18.1459 4.87528 18.0927 4.71052 17.9852 4.58279C17.8777 4.45505 17.7245 4.37451 17.5583 4.35841Z" fill="#ED0606"/>
<path d="M16.0233 6.78326C15.9253 6.68084 15.8076 6.59927 15.6773 6.54342C15.547 6.48758 15.4068 6.45861 15.265 6.45826H4.73333C4.59144 6.45783 4.45097 6.48645 4.32055 6.54234C4.19014 6.59823 4.07254 6.68022 3.97499 6.78326C3.87765 6.88822 3.80229 7.0116 3.75334 7.14613C3.7044 7.28065 3.68286 7.42361 3.68999 7.56659L4.20666 16.1166C4.29833 17.3833 4.41499 18.9666 7.32333 18.9666H12.6733C15.5817 18.9666 15.6983 17.3916 15.79 16.1166L16.3067 7.57492C16.3146 7.43074 16.2936 7.28643 16.2449 7.15048C16.1963 7.01453 16.1209 6.88967 16.0233 6.78326ZM11.3833 14.7916H8.60666C8.4409 14.7916 8.28193 14.7257 8.16472 14.6085C8.04751 14.4913 7.98166 14.3324 7.98166 14.1666C7.98166 14.0008 8.04751 13.8419 8.16472 13.7246C8.28193 13.6074 8.4409 13.5416 8.60666 13.5416H11.3817C11.5474 13.5416 11.7064 13.6074 11.8236 13.7246C11.9408 13.8419 12.0067 14.0008 12.0067 14.1666C12.0067 14.3324 11.9408 14.4913 11.8236 14.6085C11.7064 14.7257 11.5474 14.7916 11.3817 14.7916H11.3833ZM12.0833 11.4583H7.91666C7.7509 11.4583 7.59193 11.3924 7.47472 11.2752C7.35751 11.158 7.29166 10.999 7.29166 10.8333C7.29166 10.6675 7.35751 10.5085 7.47472 10.3913C7.59193 10.2741 7.7509 10.2083 7.91666 10.2083H12.0833C12.2491 10.2083 12.4081 10.2741 12.5253 10.3913C12.6425 10.5085 12.7083 10.6675 12.7083 10.8333C12.7083 10.999 12.6425 11.158 12.5253 11.2752C12.4081 11.3924 12.2491 11.4583 12.0833 11.4583Z" fill="#ED0606"/>
</svg>
